<svg version="1.1" xmlns="http://www.w3.org/2000/svg" width="24" height="24" viewBox="0 0 32 32">
  <path d="M26 30h-25.333c-0.368 0-0.667-0.3-0.667-0.667v-21.333c0-0.367 0.299-0.667 0.667-0.667h25.333c0.367 0 0.667 0.3 0.667 0.667v21.333c0 0.367-0.3 0.667-0.667 0.667zM1.333 28.667h24v-20h-24v20zM28.667 27.333h-2c-0.367 0-0.667-0.3-0.667-0.667s0.3-0.667 0.667-0.667h1.333v-20h-24v1.333c0 0.367-0.299 0.667-0.667 0.667s-0.667-0.3-0.667-0.667v-2c0-0.367 0.299-0.667 0.667-0.667h25.333c0.367 0 0.667 0.3 0.667 0.667v21.333c0 0.367-0.3 0.667-0.667 0.667zM31.333 24.667h-2c-0.367 0-0.667-0.3-0.667-0.667s0.3-0.667 0.667-0.667h1.333v-20h-24v1.333c0 0.367-0.299 0.667-0.667 0.667s-0.667-0.3-0.667-0.667v-2c0-0.367 0.299-0.667 0.667-0.667h25.333c0.367 0 0.667 0.3 0.667 0.667v21.333c0 0.367-0.3 0.667-0.667 0.667zM25.333 14h-24c-0.368 0-0.667-0.3-0.667-0.667s0.299-0.667 0.667-0.667h24c0.367 0 0.667 0.3 0.667 0.667s-0.3 0.667-0.667 0.667z" fill="#FFFFFF"></path>
</svg>
