<svg version="1.1" xmlns="http://www.w3.org/2000/svg" width="24" height="24" viewBox="0 0 32 32">
        <path d="M30.639 31.667h-30c-0.367 0-0.667-0.3-0.667-0.667v-30c0-0.367 0.3-0.667 0.667-0.667s0.667 0.3 0.667 0.667v29.333h29.333c0.367 0 0.667 0.3 0.667 0.667s-0.3 0.667-0.667 0.667zM2.639 5h-1.333c-0.367 0-0.667-0.3-0.667-0.667s0.3-0.667 0.667-0.667h1.333c0.367 0 0.667 0.3 0.667 0.667s-0.3 0.667-0.667 0.667zM2.639 9h-1.333c-0.367 0-0.667-0.3-0.667-0.667s0.3-0.667 0.667-0.667h1.333c0.367 0 0.667 0.3 0.667 0.667s-0.3 0.667-0.667 0.667zM2.639 13h-1.333c-0.367 0-0.667-0.3-0.667-0.667s0.3-0.667 0.667-0.667h1.333c0.367 0 0.667 0.3 0.667 0.667s-0.3 0.667-0.667 0.667zM2.639 17h-1.333c-0.367 0-0.667-0.3-0.667-0.667s0.3-0.667 0.667-0.667h1.333c0.367 0 0.667 0.3 0.667 0.667s-0.3 0.667-0.667 0.667zM7.361 26.221c-1.839 0-3.333-1.495-3.333-3.333s1.495-3.333 3.333-3.333 3.333 1.495 3.333 3.333-1.495 3.333-3.333 3.333zM7.361 20.888c-1.103 0-2 0.897-2 2s0.897 2 2 2 2-0.897 2-2-0.897-2-2-2zM20.695 22.221c-1.839 0-3.333-1.495-3.333-3.333s1.495-3.333 3.333-3.333 3.333 1.495 3.333 3.333-1.495 3.333-3.333 3.333zM20.695 16.888c-1.104 0-2 0.897-2 2s0.896 2 2 2c1.101 0 2-0.897 2-2s-0.897-2-2-2zM28.695 7.555c-1.839 0-3.333-1.495-3.333-3.333s1.495-3.333 3.333-3.333 3.333 1.495 3.333 3.333-1.495 3.333-3.333 3.333zM28.695 2.221c-1.104 0-2 0.897-2 2s0.896 2 2 2c1.101 0 2-0.897 2-2s-0.897-2-2-2zM21.972 17.216c-0.109 0-0.219-0.027-0.32-0.084-0.323-0.175-0.443-0.581-0.265-0.905l5.451-9.991c0.175-0.325 0.584-0.443 0.907-0.265 0.32 0.176 0.443 0.584 0.263 0.907l-5.451 9.989c-0.121 0.224-0.351 0.349-0.584 0.349zM10.028 22.86c-0.285 0-0.548-0.184-0.637-0.469-0.109-0.355 0.084-0.724 0.44-0.833l8-2.479c0.355-0.109 0.724 0.088 0.833 0.44 0.109 0.355-0.085 0.724-0.44 0.833l-8 2.477c-0.064 0.023-0.131 0.031-0.196 0.031zM2.944 29.779c-0.139 0-0.279-0.043-0.399-0.133-0.296-0.219-0.357-0.639-0.137-0.932l2.968-3.987c0.224-0.299 0.64-0.357 0.933-0.139 0.296 0.22 0.359 0.639 0.137 0.933l-2.968 3.987c-0.132 0.18-0.332 0.271-0.535 0.271z" fill="#FFFFFF"></path>
        </svg>