<svg version="1.1" xmlns="http://www.w3.org/2000/svg" width="24" height="24" viewBox="0 0 41 32">
              <path
                d="M10.209 17.709c-3.295 0-5.968-5.087-5.968-8.412 0-3.291 2.677-5.969 5.968-5.969 3.289 0 5.967 2.677 5.967 5.969 0 3.321-2.672 8.412-5.967 8.412zM10.209 4.665c-2.556 0-4.635 2.080-4.635 4.635 0 2.667 2.167 7.080 4.635 7.080s4.633-4.413 4.633-7.080c0-2.556-2.079-4.635-4.633-4.635zM30.211 17.709c-3.295 0-5.972-5.087-5.972-8.412 0-3.291 2.68-5.969 5.972-5.969 3.289 0 5.967 2.677 5.967 5.969 0 3.321-2.675 8.412-5.967 8.412zM30.211 4.665c-2.555 0-4.639 2.080-4.639 4.635 0 2.667 2.167 7.080 4.639 7.080 2.467 0 4.633-4.413 4.633-7.080 0-2.556-2.079-4.635-4.633-4.635zM10.209 28.671c-5.629 0-10.209-3.196-10.209-7.135 0-2.661 2.095-6.223 5.336-9.072 0.277-0.243 0.699-0.215 0.941 0.061 0.244 0.276 0.216 0.697-0.060 0.943-2.92 2.565-4.883 5.807-4.883 8.068 0 3.195 3.981 5.8 8.876 5.8 1.061 0 1.732-0.139 2.635-0.352 0.356-0.083 0.717 0.139 0.801 0.497s-0.139 0.716-0.497 0.804c-0.964 0.227-1.737 0.385-2.94 0.385zM18.244 17.639c-0.228 0-0.451-0.117-0.575-0.328-0.821-1.391-1.959-2.472-3.476-3.844-0.273-0.249-0.295-0.671-0.047-0.944 0.248-0.272 0.669-0.295 0.941-0.048 1.605 1.455 2.813 2.603 3.729 4.156 0.187 0.315 0.083 0.725-0.235 0.915-0.107 0.063-0.223 0.093-0.339 0.093zM21.839 17.639c-0.115 0-0.232-0.028-0.339-0.091-0.317-0.191-0.419-0.595-0.235-0.915 0.752-1.275 1.893-2.26 3.099-3.307 0.32-0.276 0.645-0.557 0.964-0.848 0.272-0.247 0.695-0.227 0.943 0.045 0.248 0.273 0.227 0.695-0.047 0.941-0.325 0.299-0.659 0.584-0.987 0.868-1.12 0.972-2.18 1.888-2.82 2.972-0.128 0.216-0.349 0.333-0.579 0.333zM30.211 28.665c-1.099 0-2.2-0.132-3.273-0.377-0.357-0.084-0.581-0.443-0.497-0.805 0.085-0.36 0.432-0.584 0.803-0.496 0.972 0.228 1.972 0.344 2.971 0.344 4.893 0 8.872-2.597 8.872-5.791 0-2.261-1.965-5.505-4.883-8.068-0.276-0.247-0.305-0.665-0.060-0.943 0.243-0.276 0.664-0.305 0.939-0.060 3.244 2.845 5.337 6.408 5.337 9.071 0 3.932-4.58 7.125-10.208 7.125zM14.921 26.332c-2.205 0-4-1.776-4-3.963 0-2.219 1.701-3.961 3.875-3.961 0.909 0 1.515 0.32 2.032 0.667 0.305 0.205 0.389 0.62 0.184 0.925-0.204 0.305-0.62 0.387-0.924 0.187-0.429-0.288-0.761-0.443-1.291-0.443-1.425 0-2.541 1.152-2.541 2.628 0 1.448 1.196 2.628 2.667 2.628 0.583 0 1.18-0.203 1.639-0.557 0.292-0.224 0.711-0.169 0.935 0.12 0.224 0.295 0.171 0.711-0.121 0.935-0.697 0.539-1.568 0.835-2.453 0.835zM26.968 26.332c-0.885 0-1.756-0.299-2.453-0.836-0.293-0.224-0.347-0.641-0.123-0.935 0.224-0.289 0.641-0.347 0.933-0.12 0.46 0.356 1.057 0.557 1.639 0.557 1.471 0 2.667-1.177 2.667-2.629 0-1.472-1.12-2.628-2.54-2.628-0.529 0-0.861 0.156-1.293 0.443-0.305 0.2-0.721 0.123-0.924-0.184s-0.123-0.72 0.185-0.925c0.519-0.347 1.123-0.667 2.029-0.667 2.175 0 3.873 1.743 3.873 3.961 0.007 2.187-1.789 3.963-3.993 3.963zM25.117 22.972h-8c-0.368 0-0.667-0.301-0.667-0.667 0-0.367 0.299-0.667 0.667-0.667h8c0.367 0 0.667 0.3 0.667 0.667 0 0.365-0.3 0.667-0.667 0.667z">
              </path>
            </svg>