<svg version="1.1" xmlns="http://www.w3.org/2000/svg" width="34" height="34" viewBox="0 0 32 32">
        <path fill="#FFFFFF" d="M24.668 31.859h-17.333c-0.367 0-0.667-0.3-0.667-0.667v-23.087c0-0.177 0.071-0.347 0.195-0.472l6.251-6.251c1.653-1.656 4.331-1.656 5.984 0l6.044 6.257c0.123 0.128 0.191 0.291 0.191 0.467v23.084c0.003 0.368-0.297 0.668-0.664 0.668zM8.001 30.525h16v-22.152l-5.852-6.057c-1.139-1.139-2.94-1.143-4.091 0.008l-6.057 6.057v22.144zM16.004 25.92c-1.864 0-3.12-1.088-3.12-2.709 0-0.368 0.3-0.667 0.667-0.667s0.667 0.299 0.667 0.667c0 1.277 1.367 1.376 1.787 1.376s1.787-0.099 1.787-1.376c0-0.772-0.235-0.944-1.692-1.663l-0.775-0.383c-1.417-0.695-2.44-1.2-2.44-2.86 0-1.636 1.252-2.729 3.12-2.729 1.845 0 3.084 1.093 3.084 2.729 0 0.365-0.299 0.667-0.667 0.667-0.365 0-0.667-0.301-0.667-0.667 0-1.299-1.339-1.396-1.751-1.396-0.419 0-1.787 0.099-1.787 1.396 0 0.773 0.235 0.943 1.695 1.664l0.773 0.383c1.416 0.695 2.435 1.197 2.435 2.859 0.004 1.621-1.252 2.709-3.116 2.709zM15.92 14.991c-0.189 0-0.347-0.065-0.479-0.197-0.12-0.12-0.188-0.295-0.188-0.469 0-0.187 0.068-0.36 0.197-0.477 0.243-0.241 0.683-0.241 0.933 0 0.12 0.137 0.189 0.305 0.189 0.477 0 0.175-0.069 0.333-0.189 0.469-0.116 0.119-0.292 0.197-0.464 0.197zM15.249 14.321h1.333v1.536h-1.333v-1.536zM15.92 27.859c-0.189 0-0.372-0.068-0.495-0.2-0.104-0.12-0.185-0.293-0.185-0.467s0.081-0.349 0.197-0.469c0.213-0.241 0.695-0.251 0.947 0 0.12 0.12 0.196 0.296 0.196 0.469s-0.080 0.347-0.196 0.479c-0.131 0.12-0.292 0.188-0.464 0.188zM15.249 25.192h1.333v2.004h-1.333v-2.004zM16.215 9.733c-1.347 0-2.443-1.096-2.443-2.443 0-1.349 1.096-2.443 2.443-2.443s2.443 1.093 2.443 2.443c0 1.347-1.096 2.443-2.443 2.443zM16.215 6.181c-0.612 0-1.109 0.497-1.109 1.109s0.497 1.109 1.109 1.109 1.109-0.497 1.109-1.109-0.497-1.109-1.109-1.109z"></path>
        </svg>