<svg version="1.1" xmlns="http://www.w3.org/2000/svg" width="34" height="34" viewBox="0 0 32 32">
        <path fill="#FFFFFF" d="M21.063 20.216c-1.316 0-2.404-1.004-2.531-2.288-0.403-0.132-0.793-0.293-1.171-0.483-0.959 0.789-2.505 0.727-3.407-0.175-0.48-0.476-0.745-1.117-0.745-1.799 0-0.592 0.201-1.155 0.572-1.607-0.192-0.377-0.353-0.769-0.484-1.172-1.284-0.128-2.288-1.215-2.288-2.529s1.004-2.404 2.288-2.529c0.131-0.403 0.293-0.796 0.484-1.171-0.368-0.449-0.572-1.013-0.572-1.608 0-0.68 0.265-1.316 0.745-1.801 0.899-0.899 2.435-0.971 3.407-0.172 0.376-0.193 0.768-0.356 1.171-0.483 0.131-1.284 1.215-2.288 2.531-2.288 1.315 0 2.401 1.005 2.529 2.288 0.403 0.132 0.793 0.296 1.171 0.483 0.964-0.796 2.505-0.729 3.409 0.172 0.479 0.479 0.744 1.12 0.744 1.801 0 0.592-0.201 1.155-0.572 1.607 0.192 0.377 0.355 0.769 0.484 1.172 1.284 0.132 2.287 1.215 2.287 2.529s-1.003 2.401-2.287 2.529c-0.131 0.403-0.293 0.796-0.484 1.172 0.369 0.449 0.572 1.012 0.572 1.607 0 0.68-0.264 1.319-0.747 1.799-0.896 0.901-2.435 0.969-3.404 0.175-0.377 0.193-0.768 0.356-1.172 0.483-0.128 1.284-1.216 2.288-2.531 2.288zM17.213 15.935c0.115 0 0.235 0.031 0.341 0.093 0.565 0.339 1.177 0.591 1.82 0.755 0.325 0.084 0.539 0.399 0.495 0.733l-0.019 0.149c0 0.669 0.541 1.211 1.211 1.211 0.667 0 1.211-0.54 1.211-1.211l-0.020-0.149c-0.043-0.335 0.168-0.647 0.496-0.733 0.643-0.164 1.255-0.417 1.82-0.755 0.292-0.175 0.667-0.104 0.872 0.167 0.021 0.027 0.091 0.139 0.107 0.167 0.391 0.385 1.224 0.421 1.68-0.033 0.229-0.228 0.356-0.531 0.356-0.857 0-0.323-0.127-0.629-0.353-0.857-0.031-0.019-0.115-0.060-0.141-0.084-0.261-0.205-0.331-0.579-0.157-0.863 0.339-0.567 0.592-1.179 0.755-1.816 0.084-0.328 0.392-0.555 0.733-0.497l0.153 0.020c0.668 0 1.209-0.543 1.209-1.211s-0.541-1.211-1.209-1.211c-0.004 0-0.151 0.020-0.153 0.020-0.341 0.035-0.649-0.172-0.733-0.497-0.163-0.639-0.417-1.251-0.755-1.815-0.175-0.291-0.104-0.664 0.163-0.869 0.028-0.021 0.139-0.089 0.168-0.107 0.195-0.196 0.323-0.503 0.323-0.825s-0.123-0.631-0.352-0.859c-0.459-0.461-1.253-0.457-1.712 0-0.017 0.028-0.056 0.109-0.077 0.139-0.205 0.265-0.579 0.339-0.867 0.164-0.568-0.339-1.18-0.593-1.821-0.757-0.327-0.084-0.54-0.399-0.496-0.733l0.019-0.152c0-0.667-0.541-1.211-1.211-1.211-0.667 0-1.209 0.544-1.209 1.211l0.020 0.152c0.043 0.335-0.169 0.649-0.497 0.733-0.64 0.164-1.252 0.419-1.82 0.757-0.287 0.167-0.652 0.101-0.861-0.156-0.023-0.028-0.099-0.144-0.116-0.177-0.396-0.391-1.224-0.425-1.683 0.031-0.229 0.228-0.355 0.531-0.355 0.857s0.125 0.629 0.355 0.857c0.028 0.016 0.109 0.056 0.135 0.076 0.269 0.205 0.34 0.584 0.167 0.872-0.34 0.565-0.595 1.177-0.756 1.817-0.084 0.325-0.4 0.529-0.732 0.497l-0.155-0.023c-0.668 0-1.211 0.543-1.211 1.211s0.543 1.211 1.211 1.211c0.003 0 0.152-0.020 0.155-0.023 0.332-0.057 0.649 0.172 0.732 0.497 0.163 0.64 0.417 1.252 0.756 1.819 0.172 0.288 0.104 0.66-0.161 0.865-0.028 0.023-0.139 0.092-0.169 0.112-0.197 0.195-0.323 0.5-0.323 0.823s0.125 0.629 0.355 0.857c0.457 0.459 1.255 0.459 1.712 0 0.019-0.031 0.061-0.115 0.084-0.143 0.124-0.16 0.319-0.249 0.515-0.249zM21.063 13.176c-1.661 0-3.013-1.353-3.013-3.013s1.352-3.015 3.013-3.015 3.013 1.353 3.013 3.015-1.352 3.013-3.013 3.013zM21.063 8.481c-0.927 0-1.68 0.751-1.68 1.681 0 0.925 0.752 1.68 1.68 1.68s1.68-0.753 1.68-1.68-0.753-1.681-1.68-1.681zM7.015 31.888c-0.195 0-0.389-0.027-0.579-0.081-1.024-0.296-1.659-1.296-1.525-2.316-0.223-0.155-0.437-0.324-0.639-0.507-0.953 0.361-2.105-0.057-2.604-0.952-0.276-0.496-0.343-1.069-0.188-1.615 0.127-0.444 0.388-0.827 0.747-1.103-0.048-0.267-0.080-0.536-0.093-0.809-0.944-0.425-1.459-1.492-1.168-2.516 0.283-0.997 1.295-1.656 2.316-1.527 0.155-0.224 0.324-0.437 0.505-0.639-0.161-0.42-0.181-0.885-0.055-1.329 0.155-0.545 0.513-0.999 1.008-1.272 0.895-0.507 2.1-0.244 2.715 0.557 0.268-0.049 0.54-0.083 0.812-0.092 0.419-0.921 1.515-1.456 2.515-1.167 1.024 0.289 1.659 1.289 1.525 2.312 0.224 0.156 0.439 0.324 0.64 0.507 0.977-0.365 2.107 0.057 2.604 0.953 0.276 0.495 0.343 1.068 0.188 1.613-0.127 0.444-0.388 0.827-0.747 1.103 0.048 0.268 0.080 0.535 0.093 0.808 0.944 0.427 1.459 1.492 1.168 2.517-0.284 0.997-1.292 1.66-2.316 1.528-0.155 0.221-0.323 0.435-0.505 0.639 0.16 0.419 0.181 0.884 0.055 1.329-0.153 0.544-0.513 0.997-1.008 1.272-0.896 0.501-2.101 0.241-2.715-0.559-0.268 0.048-0.539 0.081-0.812 0.093-0.341 0.751-1.096 1.251-1.937 1.251zM4.371 27.481c0.179 0 0.356 0.073 0.487 0.211 0.34 0.361 0.731 0.672 1.163 0.92 0.295 0.171 0.413 0.535 0.275 0.851-0.156 0.503 0.088 0.943 0.507 1.063 0.401 0.109 0.857-0.139 0.973-0.547 0.056-0.328 0.368-0.649 0.695-0.669l0.152 0.003c0.447 0 0.891-0.057 1.321-0.175 0.329-0.091 0.68 0.084 0.8 0.413 0.009 0.025 0.037 0.123 0.043 0.147 0.16 0.271 0.669 0.451 1.043 0.241 0.185-0.103 0.317-0.271 0.376-0.472 0.057-0.2 0.032-0.417-0.069-0.599-0.001 0.017-0.043-0.028-0.077-0.075-0.199-0.272-0.164-0.647 0.083-0.879 0.364-0.343 0.675-0.733 0.921-1.161 0.168-0.289 0.523-0.409 0.831-0.284 0.175 0.067 0.247 0.079 0.32 0.079 0.351 0 0.663-0.239 0.759-0.576 0.119-0.419-0.125-0.857-0.544-0.976-0.335-0.047-0.679-0.356-0.669-0.693 0.015-0.497-0.043-0.993-0.173-1.473-0.088-0.325 0.083-0.667 0.396-0.792 0.031-0.013 0.139-0.044 0.171-0.052 0.112-0.071 0.245-0.24 0.304-0.441 0.057-0.201 0.032-0.416-0.069-0.6-0.205-0.369-0.701-0.509-1.073-0.305v0c0.021 0-0.020 0.035-0.064 0.072-0.271 0.201-0.653 0.173-0.888-0.077-0.339-0.361-0.731-0.672-1.163-0.921-0.289-0.168-0.411-0.527-0.28-0.835 0.161-0.517-0.083-0.955-0.5-1.075-0.412-0.115-0.86 0.136-0.975 0.544-0.048 0.333-0.36 0.609-0.692 0.667l-0.143-0.003c-0.451 0-0.899 0.060-1.332 0.177-0.323 0.084-0.659-0.080-0.787-0.385-0.015-0.032-0.049-0.143-0.057-0.18-0.159-0.265-0.669-0.443-1.041-0.235-0.185 0.101-0.319 0.271-0.376 0.472-0.057 0.2-0.032 0.417 0.069 0.597 0-0.023 0.041 0.025 0.080 0.080 0.195 0.271 0.159 0.643-0.085 0.872-0.363 0.341-0.673 0.732-0.923 1.164-0.169 0.296-0.543 0.413-0.855 0.271-0.148-0.055-0.22-0.065-0.293-0.065-0.351 0-0.663 0.24-0.759 0.576-0.119 0.417 0.125 0.859 0.544 0.975 0.333 0.049 0.677 0.356 0.668 0.695-0.015 0.497 0.044 0.995 0.173 1.472 0.087 0.325-0.081 0.665-0.393 0.795-0.029 0.011-0.135 0.040-0.165 0.049-0.12 0.075-0.253 0.243-0.311 0.445-0.057 0.2-0.032 0.416 0.069 0.599 0.205 0.365 0.701 0.513 1.075 0.305-0.023-0.001 0.027-0.045 0.084-0.084 0.112-0.081 0.247-0.124 0.377-0.124zM8.609 26.668v0c-0.231 0-0.461-0.032-0.685-0.095-0.643-0.184-1.177-0.607-1.503-1.192-0.327-0.584-0.405-1.259-0.223-1.905 0.368-1.296 1.796-2.096 3.095-1.724 1.329 0.377 2.103 1.765 1.724 3.093-0.304 1.073-1.295 1.823-2.408 1.823zM8.609 22.991c-0.521 0-0.984 0.351-1.127 0.853-0.085 0.303-0.049 0.617 0.104 0.891 0.152 0.273 0.401 0.472 0.703 0.555 0.613 0.18 1.276-0.199 1.447-0.805 0.176-0.623-0.185-1.272-0.805-1.448-0.105-0.029-0.213-0.045-0.321-0.045z"></path>
        </svg>