<svg version="1.1" xmlns="http://www.w3.org/2000/svg" width="34" height="34" viewBox="0 0 32 32">
        <path fill="#FFFFFF" d="M21.333 31.667h-10.667c-0.368 0-0.667-0.3-0.667-0.667v-4c0-0.367 0.299-0.667 0.667-0.667h0.667v-17.333c0-0.368 0.299-0.667 0.667-0.667s0.667 0.299 0.667 0.667v18c0 0.367-0.299 0.667-0.667 0.667h-0.667v2.667h9.333v-2.667h-0.667c-0.367 0-0.667-0.3-0.667-0.667v-18c0-0.368 0.3-0.667 0.667-0.667s0.667 0.299 0.667 0.667v17.333h0.667c0.367 0 0.667 0.3 0.667 0.667v4c0 0.367-0.3 0.667-0.667 0.667zM20 9.667c-0.367 0-0.667-0.299-0.667-0.667v-1.167c0-1.837-1.496-3.333-3.333-3.333s-3.333 1.496-3.333 3.333v1.167c0 0.368-0.299 0.667-0.667 0.667s-0.667-0.299-0.667-0.667v-1.167c0-2.573 2.093-4.667 4.667-4.667s4.667 2.093 4.667 4.667v1.167c0 0.368-0.3 0.667-0.667 0.667zM16 4.333c-0.368 0-0.667-0.299-0.667-0.667v-2.667c0-0.368 0.299-0.667 0.667-0.667s0.667 0.299 0.667 0.667v2.667c0 0.368-0.299 0.667-0.667 0.667zM19.333 9h-6.667c-0.368 0-0.667-0.299-0.667-0.667s0.299-0.667 0.667-0.667h6.667c0.367 0 0.667 0.299 0.667 0.667s-0.3 0.667-0.667 0.667zM14.667 24.333c-0.368 0-0.667-0.3-0.667-0.667v-14.667c0-0.368 0.299-0.667 0.667-0.667s0.667 0.299 0.667 0.667v14.667c0 0.367-0.299 0.667-0.667 0.667zM17.333 24.333c-0.367 0-0.667-0.3-0.667-0.667v-14.667c0-0.368 0.3-0.667 0.667-0.667s0.667 0.299 0.667 0.667v14.667c0 0.367-0.3 0.667-0.667 0.667z"></path>
        </svg>