<svg version="1.1" xmlns="http://www.w3.org/2000/svg" width="34" height="34" viewBox="0 0 39 32">
        <path fill="#FFFFFF" d="M34.433 5.439c-0.955-1.288-3.204-1.215-6.045-0.271-2.415-1.977-5.499-3.168-8.857-3.168-7.72 0-14 6.28-14 14 0 1.763 0.341 3.445 0.939 5.001-2.207 2.82-3.26 5.331-2.189 6.779 0.488 0.656 1.316 0.987 2.467 0.987 0.236 0 0.485-0.013 0.749-0.041 0.365-0.039 0.632-0.367 0.592-0.733s-0.359-0.631-0.733-0.592c-1.013 0.103-1.725-0.040-2.004-0.416-0.501-0.677 0.088-2.355 1.736-4.599 2.325 4.515 7.025 7.615 12.444 7.615 7.72 0 14-6.28 14-14 0-3.808-1.533-7.263-4.009-9.789 2.036-0.584 3.409-0.56 3.84 0.021 0.32 0.433 0.133 1.204-0.081 1.775-0.131 0.344 0.045 0.728 0.389 0.859 0.348 0.127 0.729-0.044 0.859-0.391 0.48-1.28 0.448-2.3-0.095-3.036zM29.795 8.608c1.381 1.913 2.237 4.221 2.368 6.723h-5.339c-0.089-2.355-0.635-4.621-1.568-6.667h4.273c0.095 0 0.185-0.021 0.265-0.056zM29.797 23.388c-0.083-0.035-0.172-0.057-0.267-0.057h-4.265c0.929-2.047 1.473-4.312 1.56-6.667h5.339c-0.131 2.503-0.985 4.811-2.367 6.724zM19.531 28.421c-1.387-1-2.576-2.275-3.519-3.757h7.035c-0.941 1.483-2.131 2.757-3.516 3.757zM15.24 23.331c-1.008-2.009-1.579-4.296-1.673-6.667h11.925c-0.095 2.371-0.665 4.657-1.673 6.667h-8.579zM9.265 8.608c0.081 0.035 0.171 0.056 0.265 0.056h4.272c-0.901 1.973-1.436 4.155-1.553 6.42-0.095 0.083-0.192 0.163-0.287 0.247h-5.065c0.132-2.501 0.988-4.809 2.368-6.723zM19.531 3.591c1.38 0.996 2.567 2.264 3.508 3.74h-7.017c0.941-1.475 2.128-2.744 3.509-3.74zM23.811 8.664c1.011 2.008 1.584 4.295 1.681 6.667h-11.481c0.865-0.717 1.789-1.447 2.783-2.183 2.523-1.869 4.881-3.347 6.995-4.484h0.023zM21.117 8.664c-1.725 1.029-3.464 2.185-5.12 3.412-0.788 0.584-1.564 1.193-2.325 1.813 0.237-1.853 0.773-3.627 1.577-5.225h5.868zM21.564 3.512c1.971 0.32 3.785 1.091 5.341 2.209-0.832 0.336-1.696 0.729-2.584 1.175-0.771-1.263-1.688-2.411-2.757-3.384zM17.496 3.512c-1.191 1.084-2.193 2.383-3.009 3.819h-4.165c1.868-1.985 4.365-3.361 7.175-3.819zM6.897 16.664h3.603c-1.117 1.052-2.151 2.112-3.049 3.145-0.316-1-0.497-2.057-0.553-3.145zM12.245 16.852c0.108 2.287 0.644 4.487 1.549 6.479h-4.264c-0.096 0-0.187 0.023-0.268 0.057-0.489-0.679-0.915-1.405-1.263-2.175 1.096-1.327 2.509-2.801 4.245-4.361zM10.316 24.664h4.161c0.815 1.436 1.816 2.737 3.004 3.821-2.805-0.459-5.299-1.837-7.165-3.821zM21.579 28.485c1.188-1.084 2.189-2.385 3.004-3.821h4.163c-1.867 1.984-4.36 3.363-7.167 3.821zM28.74 7.331h-2.244c0.555-0.245 1.085-0.463 1.585-0.648 0.228 0.209 0.448 0.424 0.659 0.648z"></path>
        </svg>